<svg id="visual" viewBox="0 0 900 600" width="900" height="600" xmlns="http://www.w3.org/2000/svg" xmlns:xlink="http://www.w3.org/1999/xlink" version="1.1"><path d="M0 477L21.5 477.2C43 477.3 86 477.7 128.8 479.7C171.7 481.7 214.3 485.3 257.2 478.7C300 472 343 455 385.8 449C428.7 443 471.3 448 514.2 455.7C557 463.3 600 473.7 642.8 472.5C685.7 471.3 728.3 458.7 771.2 460.2C814 461.7 857 477.3 878.5 485.2L900 493L900 601L878.5 601C857 601 814 601 771.2 601C728.3 601 685.7 601 642.8 601C600 601 557 601 514.2 601C471.3 601 428.7 601 385.8 601C343 601 300 601 257.2 601C214.3 601 171.7 601 128.8 601C86 601 43 601 21.5 601L0 601Z" fill="#57d7ba"></path><path d="M0 485L21.5 491.2C43 497.3 86 509.7 128.8 515.8C171.7 522 214.3 522 257.2 520.2C300 518.3 343 514.7 385.8 515.3C428.7 516 471.3 521 514.2 517.3C557 513.7 600 501.3 642.8 498C685.7 494.7 728.3 500.3 771.2 507C814 513.7 857 521.3 878.5 525.2L900 529L900 601L878.5 601C857 601 814 601 771.2 601C728.3 601 685.7 601 642.8 601C600 601 557 601 514.2 601C471.3 601 428.7 601 385.8 601C343 601 300 601 257.2 601C214.3 601 171.7 601 128.8 601C86 601 43 601 21.5 601L0 601Z" fill="#32a488"></path><path d="M0 538L21.5 535.3C43 532.7 86 527.3 128.8 523.8C171.7 520.3 214.3 518.7 257.2 520.5C300 522.3 343 527.7 385.8 530C428.7 532.3 471.3 531.7 514.2 536.5C557 541.3 600 551.7 642.8 554C685.7 556.3 728.3 550.7 771.2 547.2C814 543.7 857 542.3 878.5 541.7L900 541L900 601L878.5 601C857 601 814 601 771.2 601C728.3 601 685.7 601 642.8 601C600 601 557 601 514.2 601C471.3 601 428.7 601 385.8 601C343 601 300 601 257.2 601C214.3 601 171.7 601 128.8 601C86 601 43 601 21.5 601L0 601Z" fill="#01735a"></path></svg>