<svg id="visual" viewBox="0 0 1500 80" width="1500" height="80" xmlns="http://www.w3.org/2000/svg" xmlns:xlink="http://www.w3.org/1999/xlink" version="1.1"><path d="M0 17L35.7 17.2C71.3 17.3 142.7 17.7 214.2 18C285.7 18.3 357.3 18.7 428.8 20.3C500.3 22 571.7 25 643 24.5C714.3 24 785.7 20 857 17.7C928.3 15.3 999.7 14.7 1071.2 15.5C1142.7 16.3 1214.3 18.7 1285.8 20.5C1357.3 22.3 1428.7 23.7 1464.3 24.3L1500 25L1500 81L1464.3 81C1428.7 81 1357.3 81 1285.8 81C1214.3 81 1142.7 81 1071.2 81C999.7 81 928.3 81 857 81C785.7 81 714.3 81 643 81C571.7 81 500.3 81 428.8 81C357.3 81 285.7 81 214.2 81C142.7 81 71.3 81 35.7 81L0 81Z" fill="#2f3f4d"></path><path d="M0 33L35.7 33.8C71.3 34.7 142.7 36.3 214.2 37.3C285.7 38.3 357.3 38.7 428.8 39.7C500.3 40.7 571.7 42.3 643 44.3C714.3 46.3 785.7 48.7 857 46.8C928.3 45 999.7 39 1071.2 37.2C1142.7 35.3 1214.3 37.7 1285.8 38.2C1357.3 38.7 1428.7 37.3 1464.3 36.7L1500 36L1500 81L1464.3 81C1428.7 81 1357.3 81 1285.8 81C1214.3 81 1142.7 81 1071.2 81C999.7 81 928.3 81 857 81C785.7 81 714.3 81 643 81C571.7 81 500.3 81 428.8 81C357.3 81 285.7 81 214.2 81C142.7 81 71.3 81 35.7 81L0 81Z" fill="#263038"></path><path d="M0 59L35.7 58C71.3 57 142.7 55 214.2 52.7C285.7 50.3 357.3 47.7 428.8 47.2C500.3 46.7 571.7 48.3 643 48.3C714.3 48.3 785.7 46.7 857 47.2C928.3 47.7 999.7 50.3 1071.2 51.2C1142.7 52 1214.3 51 1285.8 51C1357.3 51 1428.7 52 1464.3 52.5L1500 53L1500 81L1464.3 81C1428.7 81 1357.3 81 1285.8 81C1214.3 81 1142.7 81 1071.2 81C999.7 81 928.3 81 857 81C785.7 81 714.3 81 643 81C571.7 81 500.3 81 428.8 81C357.3 81 285.7 81 214.2 81C142.7 81 71.3 81 35.7 81L0 81Z" fill="#1c2125"></path><path d="M0 64L35.7 63.8C71.3 63.7 142.7 63.3 214.2 62.8C285.7 62.3 357.3 61.7 428.8 61.5C500.3 61.3 571.7 61.7 643 63.3C714.3 65 785.7 68 857 67C928.3 66 999.7 61 1071.2 59C1142.7 57 1214.3 58 1285.8 58.2C1357.3 58.3 1428.7 57.7 1464.3 57.3L1500 57L1500 81L1464.3 81C1428.7 81 1357.3 81 1285.8 81C1214.3 81 1142.7 81 1071.2 81C999.7 81 928.3 81 857 81C785.7 81 714.3 81 643 81C571.7 81 500.3 81 428.8 81C357.3 81 285.7 81 214.2 81C142.7 81 71.3 81 35.7 81L0 81Z" fill="#121212"></path></svg>